<?xml version="1.0" encoding="utf-8"?>
<!-- Generator: Adobe Illustrator 23.0.3, SVG Export Plug-In . SVG Version: 6.00 Build 0)  -->
<svg version="1.1" id="Layer_1" xmlns="http://www.w3.org/2000/svg" xmlns:xlink="http://www.w3.org/1999/xlink" x="0px" y="0px"
	 viewBox="0 0 329.86 90.47" style="enable-background:new 0 0 329.86 90.47;" xml:space="preserve">
<style type="text/css">
	.st0{fill:#0655E7;}
	.st1{fill:#FFC60E;}
	.st2{fill:#4265ED;}
</style>
<g>
	<path d="M10.55,83.67V6.8h20.84v10.42c2.53-4.1,5.73-7.13,9.63-9.08c3.89-1.95,8.15-2.92,12.79-2.92c4.95,0,9.18,1.05,12.71,3.16
		c3.52,2.11,6.39,4.92,8.6,8.44c2.21,3.53,3.84,7.63,4.89,12.31c1.05,4.68,1.58,9.55,1.58,14.6v39.94H59.96V43.58
		c0-6.95-1.08-12.21-3.24-15.79c-2.16-3.58-5.71-5.37-10.65-5.37c-3.16,0-5.89,0.74-8.21,2.21c-2.32,1.47-4.21,3.21-5.68,5.21v53.83
		H10.55z"/>
	<path d="M134.15,5.22c5.05,0,9.55,0.79,13.5,2.37c3.95,1.58,7.23,3.82,9.87,6.71c2.63,2.9,4.63,6.37,6,10.42
		c1.37,4.05,2.05,8.6,2.05,13.65c0,2.11-0.13,4.24-0.39,6.39c-0.26,2.16-0.66,4.13-1.18,5.92h-45.62
		c0.21,5.64,1.95,10.12,5.21,13.46c3.26,3.34,8.47,5.01,15.63,5.01c4.1,0,8.1-0.38,12-1.14c3.89-0.76,7.36-1.85,10.42-3.28
		l2.68,14.68c-3.79,1.89-8.1,3.34-12.94,4.34c-4.84,1-9.84,1.5-15,1.5c-6.42,0-12.1-0.95-17.05-2.84
		c-4.95-1.89-9.13-4.58-12.55-8.05c-3.42-3.47-6.03-7.66-7.81-12.55c-1.79-4.89-2.68-10.29-2.68-16.18c0-6,0.87-11.5,2.6-16.5
		c1.74-5,4.24-9.26,7.5-12.79c3.26-3.53,7.23-6.26,11.92-8.21C122.96,6.2,128.25,5.22,134.15,5.22z M132.88,19.74
		c-4.42,0-7.81,1.55-10.18,4.66c-2.37,3.11-3.76,7.02-4.18,11.76h26.36c0.53-4.95-0.21-8.92-2.21-11.92
		C140.67,21.24,137.41,19.74,132.88,19.74z"/>
	<path d="M228.54,25.27h-3.63c-5.37,0-9.84,0.84-13.42,2.53c-3.58,1.68-6.42,4.1-8.52,7.26v48.62h-21.63V6.8h20.84v13.58
		c1.47-4.52,3.81-8.05,7.02-10.58c3.21-2.53,7.5-3.79,12.86-3.79c2.42,0,4.58,0.26,6.47,0.79V25.27z"/>
	<polygon class="st2" points="268.82,6.8 292.16,83.67 269.42,83.67 264.57,69.85 242.43,6.8 	"/>
	<polygon points="319.3,6.8 304.35,49.37 291.42,6.8 	"/>
</g>
</svg>
